{"title":"Race for Your Life, Charlie Brown (1977)","uid":8077571,"size":847123848,"categoryP":"video","categoryS":"movies","magnet":"?xt=urn:btih:98987a48b4b4b74cd0cccfe2792c82d4442f4b8a&amp;dn=Race+for+Your+Life%2C+Charlie+Brown+%281977%29&amp;tr=udp%3A%2F%2Ftracker.openbittorrent.com%3A80&amp;tr=udp%3A%2F%2Fopen.demonii.com%3A1337&amp;tr=udp%3A%2F%2Ftracker.coppersurfer.tk%3A6969&amp;tr=udp%3A%2F%2Fexodus.desync.com%3A6969","seeders":3,"leechers":0,"uploader":"ClamNutz","files":-1,"time":1359410901,"description":"This is not my rip. It is a very good copy though, especially considering it has never been released on DVD. Check the sample. This is a rare cartoon to have.\n &lt;a href=&quot;\nhttp://www.imdb.com/title/tt0076591/&quot; rel=&quot;nofollow&quot; target=&quot;_NEW&quot;&gt;\nhttp://www.imdb.com/title/tt0076591/&lt;/a&gt;\n &lt;a href=&quot;\nhttp://imageshack.us/a/img38/1885/vlcsnap2013012813h59m18.png&quot; rel=&quot;nofollow&quot; target=&quot;_NEW&quot;&gt;\nhttp://imageshack.us/a/img38/1885/vlcsnap2013012813h59m18.png&lt;/a&gt; &lt;a href=&quot;\nhttp://imageshack.us/a/img543/5880/vlcsnap2013012813h59m38.png&quot; rel=&quot;nofollow&quot; target=&quot;_NEW&quot;&gt;\nhttp://imageshack.us/a/img543/5880/vlcsnap2013012813h59m38.png&lt;/a&gt; &lt;a href=&quot;\nhttp://imageshack.us/a/img38/369/vlcsnap2013012814h00m05.png&quot; rel=&quot;nofollow&quot; target=&quot;_NEW&quot;&gt;\nhttp://imageshack.us/a/img38/369/vlcsnap2013012814h00m05.png&lt;/a&gt; &lt;a href=&quot;\nhttp://imageshack.us/a/img22/388/vlcsnap2013012813h59m55.png&quot; rel=&quot;nofollow&quot; target=&quot;_NEW&quot;&gt;\nhttp://imageshack.us/a/img22/388/vlcsnap2013012813h59m55.png&lt;/a&gt; &lt;a href=&quot;\nhttp://imageshack.us/a/img22/8756/vlcsnap2013012814h00m25.png&quot; rel=&quot;nofollow&quot; target=&quot;_NEW&quot;&gt;\nhttp://imageshack.us/a/img22/8756/vlcsnap2013012814h00m25.png&lt;/a&gt;\n\n\nVideo\nID                                       : 0\nFormat                                   : MPEG-4 Visual\nFormat settings, BVOP                    : 1\nFormat settings, QPel                    : No\nFormat settings, GMC                     : No warppoints\nFormat settings, Matrix                  : Default (H.263)\nMuxing mode                              : Packed bitstream\nCodec ID                                 : DX50\nCodec ID/Hint                            : DivX 5\nDuration                                 : 1h 12mn\nBit rate                                 : 1 460 Kbps\nWidth                                    : 640 pixels\nHeight                                   : 480 pixels\nDisplay aspect ratio                     : 4:3\nFrame rate                               : 25.000 fps\nColor space                              : YUV\nChroma subsampling                       : 4:2:0\nBit depth                                : 8 bits\nScan type                                : Progressive\nCompression mode                         : Lossy\nBits/(Pixel*Frame)                       : 0.190\nStream size                              : 754 MiB (95%)\nTitle                                    : Video\nWriting library                          : DivX 5.2.1 Alpha (UTC 2004-09-08)\n\nAudio\nID                                       : 1\nFormat                                   : MPEG Audio\nFormat version                           : Version 1\nFormat profile                           : Layer 3\nCodec ID                                 : 55\nCodec ID/Hint                            : MP3\nDuration                                 : 1h 12mn\nBit rate mode                            : Constant\nBit rate                                 : 64.0 Kbps\nChannel(s)                               : 1 channel\nSampling rate                            : 44.1 KHz\nCompression mode                         : Lossy\nStream size                              : 33.1 MiB (4%)\nAlignment                                : Split accross interleaves\nInterleave, duration                     : 40 ms (1.00 video frame)\nInterleave, preload duration             : 500 ms\nTitle                                    : Audio\n\n","torrent":{"xt":"urn:btih:98987a48b4b4b74cd0cccfe2792c82d4442f4b8a","amp;dn":"Race+for+Your+Life%2C+Charlie+Brown+%281977%29","amp;tr":["udp%3A%2F%2Ftracker.openbittorrent.com%3A80","udp%3A%2F%2Fopen.demonii.com%3A1337","udp%3A%2F%2Ftracker.coppersurfer.tk%3A6969","udp%3A%2F%2Fexodus.desync.com%3A6969"],"infoHash":"98987a48b4b4b74cd0cccfe2792c82d4442f4b8a","infoHashBuffer":{"type":"Buffer","data":[152,152,122,72,180,180,183,76,208,204,207,226,121,44,130,212,68,47,75,138]},"announce":[],"urlList":[]}}